<svg xmlns="http://www.w3.org/2000/svg" viewBox="0 0 64 64">
  <path fill="var(--icon-color-accent, #ff8700)" d="M35.2 7.4 24.8 31.2 48.4 12a26.5 26.5 0 0 0-13.2-4.6Z"/>
  <path fill="var(--icon-color-primary, currentColor)" d="M29.1 8.2a25 25 0 0 0-9.8 5.3l-1.9 16.9L29.1 8.2ZM14.2 19a25.3 25.3 0 0 0-4.4 9.8l6.5 11.2L14.2 19Zm39.5-2.6L31.1 36.3l27.1-11.1a25.2 25.2 0 0 0-4.5-8.8ZM59 31.6 35 43.5l23-1.9a26 26 0 0 0 1-10ZM51.6 52.6a25.3 25.3 0 0 0 4.8-7.2l-22 3.5 17.2 3.7ZM34.6 56.9a25 25 0 0 0 11.3-2.3l-14.4-3.3 3.1 5.6Z"/>
</svg>
